<svg width="58" height="16" viewBox="0 0 58 16" fill="none" xmlns="http://www.w3.org/2000/svg">
<path d="M10.2244 4.14773H8.4517C8.38352 3.76894 8.25663 3.43561 8.07102 3.14773C7.88542 2.85985 7.65814 2.61553 7.3892 2.41477C7.12027 2.21401 6.81913 2.0625 6.4858 1.96023C6.15625 1.85795 5.80587 1.80682 5.43466 1.80682C4.7642 1.80682 4.16383 1.97538 3.63352 2.3125C3.10701 2.64962 2.69034 3.14394 2.38352 3.79545C2.08049 4.44697 1.92898 5.24242 1.92898 6.18182C1.92898 7.12879 2.08049 7.92803 2.38352 8.57955C2.69034 9.23106 3.1089 9.72348 3.6392 10.0568C4.16951 10.3902 4.7661 10.5568 5.42898 10.5568C5.7964 10.5568 6.14489 10.5076 6.47443 10.4091C6.80777 10.3068 7.1089 10.1572 7.37784 9.96023C7.64678 9.76326 7.87405 9.52273 8.05966 9.23864C8.24905 8.95076 8.37973 8.62121 8.4517 8.25L10.2244 8.25568C10.1297 8.82765 9.94602 9.35417 9.6733 9.83523C9.40436 10.3125 9.05777 10.7254 8.63352 11.0739C8.21307 11.4186 7.73201 11.6856 7.19034 11.875C6.64867 12.0644 6.05777 12.1591 5.41761 12.1591C4.41004 12.1591 3.51231 11.9205 2.72443 11.4432C1.93655 10.9621 1.31534 10.2746 0.860795 9.38068C0.410038 8.48674 0.184659 7.42045 0.184659 6.18182C0.184659 4.93939 0.411932 3.87311 0.866477 2.98295C1.32102 2.08901 1.94223 1.40341 2.73011 0.926136C3.51799 0.445075 4.41383 0.204545 5.41761 0.204545C6.03504 0.204545 6.6108 0.29356 7.14489 0.471591C7.68277 0.645833 8.16572 0.903409 8.59375 1.24432C9.02178 1.58144 9.37595 1.99432 9.65625 2.48295C9.93655 2.9678 10.1259 3.52273 10.2244 4.14773ZM14.7287 12.1932C14.1757 12.1932 13.6757 12.0909 13.2287 11.8864C12.7817 11.678 12.4276 11.3769 12.1662 10.983C11.9086 10.589 11.7798 10.1061 11.7798 9.53409C11.7798 9.04167 11.8745 8.63636 12.0639 8.31818C12.2533 8 12.509 7.74811 12.831 7.5625C13.1529 7.37689 13.5128 7.23674 13.9105 7.14205C14.3082 7.04735 14.7135 6.97538 15.1264 6.92614C15.6491 6.86553 16.0734 6.81629 16.3991 6.77841C16.7249 6.73674 16.9616 6.67045 17.1094 6.57955C17.2571 6.48864 17.331 6.34091 17.331 6.13636V6.09659C17.331 5.60038 17.1908 5.21591 16.9105 4.94318C16.634 4.67045 16.2211 4.53409 15.6719 4.53409C15.0999 4.53409 14.6491 4.66098 14.3196 4.91477C13.9938 5.16477 13.7685 5.44318 13.6435 5.75L12.0469 5.38636C12.2363 4.85606 12.5128 4.42803 12.8764 4.10227C13.2438 3.77273 13.6662 3.53409 14.1435 3.38636C14.6207 3.23485 15.1226 3.15909 15.6491 3.15909C15.9976 3.15909 16.367 3.20076 16.7571 3.28409C17.151 3.36364 17.5185 3.51136 17.8594 3.72727C18.2041 3.94318 18.4863 4.25189 18.706 4.65341C18.9257 5.05114 19.0355 5.56818 19.0355 6.20455V12H17.3764V10.8068H17.3082C17.1984 11.0265 17.0336 11.2424 16.8139 11.4545C16.5942 11.6667 16.312 11.8428 15.9673 11.983C15.6226 12.1231 15.2098 12.1932 14.7287 12.1932ZM15.098 10.8295C15.5677 10.8295 15.9692 10.7367 16.3026 10.5511C16.6397 10.3655 16.8954 10.1231 17.0696 9.82386C17.2476 9.52083 17.3366 9.19697 17.3366 8.85227V7.72727C17.276 7.78788 17.1586 7.8447 16.9844 7.89773C16.8139 7.94697 16.6188 7.99053 16.3991 8.02841C16.1795 8.0625 15.9654 8.0947 15.7571 8.125C15.5488 8.15152 15.3745 8.17424 15.2344 8.19318C14.9048 8.23485 14.6037 8.30492 14.331 8.40341C14.062 8.50189 13.8461 8.64394 13.6832 8.82955C13.5241 9.01136 13.4446 9.25379 13.4446 9.55682C13.4446 9.97727 13.5999 10.2955 13.9105 10.5114C14.2211 10.7235 14.617 10.8295 15.098 10.8295ZM25.3722 3.27273V4.63636H20.6051V3.27273H25.3722ZM21.8835 1.18182H23.5824V9.4375C23.5824 9.76705 23.6316 10.0152 23.7301 10.1818C23.8286 10.3447 23.9555 10.4564 24.1108 10.517C24.2699 10.5739 24.4422 10.6023 24.6278 10.6023C24.7642 10.6023 24.8835 10.5928 24.9858 10.5739C25.0881 10.5549 25.1676 10.5398 25.2244 10.5284L25.5312 11.9318C25.4328 11.9697 25.2926 12.0076 25.1108 12.0455C24.929 12.0871 24.7017 12.1098 24.429 12.1136C23.982 12.1212 23.5653 12.0417 23.179 11.875C22.7926 11.7083 22.4801 11.4508 22.2415 11.1023C22.0028 10.7538 21.8835 10.3163 21.8835 9.78977V1.18182ZM29.7912 12.1932C29.2382 12.1932 28.7382 12.0909 28.2912 11.8864C27.8442 11.678 27.4901 11.3769 27.2287 10.983C26.9711 10.589 26.8423 10.1061 26.8423 9.53409C26.8423 9.04167 26.937 8.63636 27.1264 8.31818C27.3158 8 27.5715 7.74811 27.8935 7.5625C28.2154 7.37689 28.5753 7.23674 28.973 7.14205C29.3707 7.04735 29.776 6.97538 30.1889 6.92614C30.7116 6.86553 31.1359 6.81629 31.4616 6.77841C31.7874 6.73674 32.0241 6.67045 32.1719 6.57955C32.3196 6.48864 32.3935 6.34091 32.3935 6.13636V6.09659C32.3935 5.60038 32.2533 5.21591 31.973 4.94318C31.6965 4.67045 31.2836 4.53409 30.7344 4.53409C30.1624 4.53409 29.7116 4.66098 29.3821 4.91477C29.0563 5.16477 28.831 5.44318 28.706 5.75L27.1094 5.38636C27.2988 4.85606 27.5753 4.42803 27.9389 4.10227C28.3063 3.77273 28.7287 3.53409 29.206 3.38636C29.6832 3.23485 30.1851 3.15909 30.7116 3.15909C31.0601 3.15909 31.4295 3.20076 31.8196 3.28409C32.2135 3.36364 32.581 3.51136 32.9219 3.72727C33.2666 3.94318 33.5488 4.25189 33.7685 4.65341C33.9882 5.05114 34.098 5.56818 34.098 6.20455V12H32.4389V10.8068H32.3707C32.2609 11.0265 32.0961 11.2424 31.8764 11.4545C31.6567 11.6667 31.3745 11.8428 31.0298 11.983C30.6851 12.1231 30.2723 12.1932 29.7912 12.1932ZM30.1605 10.8295C30.6302 10.8295 31.0317 10.7367 31.3651 10.5511C31.7022 10.3655 31.9579 10.1231 32.1321 9.82386C32.3101 9.52083 32.3991 9.19697 32.3991 8.85227V7.72727C32.3385 7.78788 32.2211 7.8447 32.0469 7.89773C31.8764 7.94697 31.6813 7.99053 31.4616 8.02841C31.242 8.0625 31.0279 8.0947 30.8196 8.125C30.6113 8.15152 30.437 8.17424 30.2969 8.19318C29.9673 8.23485 29.6662 8.30492 29.3935 8.40341C29.1245 8.50189 28.9086 8.64394 28.7457 8.82955C28.5866 9.01136 28.5071 9.25379 28.5071 9.55682C28.5071 9.97727 28.6624 10.2955 28.973 10.5114C29.2836 10.7235 29.6795 10.8295 30.1605 10.8295ZM38.0597 0.363636V12H36.3608V0.363636H38.0597ZM44.0213 12.1761C43.2031 12.1761 42.4891 11.9886 41.8793 11.6136C41.2694 11.2386 40.7959 10.714 40.4588 10.0398C40.1217 9.36553 39.9531 8.57765 39.9531 7.67614C39.9531 6.77083 40.1217 5.97917 40.4588 5.30114C40.7959 4.62311 41.2694 4.09659 41.8793 3.72159C42.4891 3.34659 43.2031 3.15909 44.0213 3.15909C44.8395 3.15909 45.5535 3.34659 46.1634 3.72159C46.7732 4.09659 47.2467 4.62311 47.5838 5.30114C47.9209 5.97917 48.0895 6.77083 48.0895 7.67614C48.0895 8.57765 47.9209 9.36553 47.5838 10.0398C47.2467 10.714 46.7732 11.2386 46.1634 11.6136C45.5535 11.9886 44.8395 12.1761 44.0213 12.1761ZM44.027 10.75C44.5573 10.75 44.9967 10.6098 45.3452 10.3295C45.6937 10.0492 45.9512 9.67614 46.1179 9.21023C46.2884 8.74432 46.3736 8.23106 46.3736 7.67045C46.3736 7.11364 46.2884 6.60227 46.1179 6.13636C45.9512 5.66667 45.6937 5.28977 45.3452 5.00568C44.9967 4.72159 44.5573 4.57955 44.027 4.57955C43.4929 4.57955 43.0497 4.72159 42.6974 5.00568C42.349 5.28977 42.0895 5.66667 41.919 6.13636C41.7524 6.60227 41.669 7.11364 41.669 7.67045C41.669 8.23106 41.7524 8.74432 41.919 9.21023C42.0895 9.67614 42.349 10.0492 42.6974 10.3295C43.0497 10.6098 43.4929 10.75 44.027 10.75ZM53.6449 15.4545C52.9517 15.4545 52.3551 15.3636 51.8551 15.1818C51.3589 15 50.9536 14.7595 50.6392 14.4602C50.3248 14.161 50.09 13.8333 49.9347 13.4773L51.3949 12.875C51.4972 13.0417 51.6335 13.2178 51.804 13.4034C51.9782 13.5928 52.2131 13.7538 52.5085 13.8864C52.8078 14.0189 53.1922 14.0852 53.6619 14.0852C54.3059 14.0852 54.8381 13.928 55.2585 13.6136C55.679 13.303 55.8892 12.8068 55.8892 12.125V10.4091H55.7812C55.679 10.5947 55.5313 10.8011 55.3381 11.0284C55.1487 11.2557 54.8873 11.4527 54.554 11.6193C54.2206 11.786 53.7869 11.8693 53.2528 11.8693C52.5634 11.8693 51.9422 11.7083 51.3892 11.3864C50.84 11.0606 50.4044 10.5814 50.0824 9.94886C49.7642 9.3125 49.6051 8.5303 49.6051 7.60227C49.6051 6.67424 49.7623 5.87879 50.0767 5.21591C50.3949 4.55303 50.8305 4.04545 51.3835 3.69318C51.9366 3.33712 52.5634 3.15909 53.2642 3.15909C53.8059 3.15909 54.2434 3.25 54.5767 3.43182C54.91 3.60985 55.1695 3.81818 55.3551 4.05682C55.5445 4.29545 55.6903 4.50568 55.7926 4.6875H55.9176V3.27273H57.5824V12.1932C57.5824 12.9432 57.4081 13.5587 57.0597 14.0398C56.7112 14.5208 56.2396 14.8769 55.6449 15.108C55.054 15.339 54.3873 15.4545 53.6449 15.4545ZM53.6278 10.4602C54.1165 10.4602 54.5294 10.3466 54.8665 10.1193C55.2074 9.88826 55.465 9.55871 55.6392 9.13068C55.8172 8.69886 55.9062 8.18182 55.9062 7.57955C55.9062 6.99242 55.8191 6.47538 55.6449 6.02841C55.4706 5.58144 55.215 5.23295 54.8778 4.98295C54.5407 4.72917 54.1241 4.60227 53.6278 4.60227C53.1165 4.60227 52.6903 4.73485 52.3494 5C52.0085 5.26136 51.7509 5.61742 51.5767 6.06818C51.4063 6.51894 51.321 7.02273 51.321 7.57955C51.321 8.15152 51.4081 8.65341 51.5824 9.08523C51.7566 9.51705 52.0142 9.85417 52.3551 10.0966C52.6998 10.339 53.1241 10.4602 53.6278 10.4602Z" fill="#D84343"/>
</svg>
