<svg width="44" height="13" viewBox="0 0 44 13" fill="none" xmlns="http://www.w3.org/2000/svg">
<path d="M0.754972 12V0.363636H2.51065V5.42045H8.31179V0.363636H10.0732V12H8.31179V6.92614H2.51065V12H0.754972ZM16.1697 12.1761C15.3516 12.1761 14.6375 11.9886 14.0277 11.6136C13.4179 11.2386 12.9444 10.714 12.6072 10.0398C12.2701 9.36553 12.1016 8.57765 12.1016 7.67614C12.1016 6.77083 12.2701 5.97917 12.6072 5.30114C12.9444 4.62311 13.4179 4.09659 14.0277 3.72159C14.6375 3.34659 15.3516 3.15909 16.1697 3.15909C16.9879 3.15909 17.7019 3.34659 18.3118 3.72159C18.9216 4.09659 19.3951 4.62311 19.7322 5.30114C20.0694 5.97917 20.2379 6.77083 20.2379 7.67614C20.2379 8.57765 20.0694 9.36553 19.7322 10.0398C19.3951 10.714 18.9216 11.2386 18.3118 11.6136C17.7019 11.9886 16.9879 12.1761 16.1697 12.1761ZM16.1754 10.75C16.7057 10.75 17.1451 10.6098 17.4936 10.3295C17.8421 10.0492 18.0997 9.67614 18.2663 9.21023C18.4368 8.74432 18.522 8.23106 18.522 7.67045C18.522 7.11364 18.4368 6.60227 18.2663 6.13636C18.0997 5.66667 17.8421 5.28977 17.4936 5.00568C17.1451 4.72159 16.7057 4.57955 16.1754 4.57955C15.6413 4.57955 15.1982 4.72159 14.8459 5.00568C14.4974 5.28977 14.2379 5.66667 14.0675 6.13636C13.9008 6.60227 13.8175 7.11364 13.8175 7.67045C13.8175 8.23106 13.9008 8.74432 14.0675 9.21023C14.2379 9.67614 14.4974 10.0492 14.8459 10.3295C15.1982 10.6098 15.6413 10.75 16.1754 10.75ZM22.1342 12V3.27273H23.7649V4.69318H23.8729C24.0547 4.21212 24.352 3.83712 24.7649 3.56818C25.1778 3.29545 25.6721 3.15909 26.2479 3.15909C26.8312 3.15909 27.3198 3.29545 27.7138 3.56818C28.1115 3.84091 28.4051 4.21591 28.5945 4.69318H28.6854C28.8937 4.22727 29.2251 3.85606 29.6797 3.57955C30.1342 3.29924 30.6759 3.15909 31.3047 3.15909C32.0964 3.15909 32.7422 3.4072 33.2422 3.90341C33.746 4.39962 33.9979 5.14773 33.9979 6.14773V12H32.299V6.30682C32.299 5.71591 32.138 5.28788 31.8161 5.02273C31.4941 4.75758 31.1096 4.625 30.6626 4.625C30.1096 4.625 29.6797 4.79545 29.3729 5.13636C29.0661 5.47348 28.9126 5.9072 28.9126 6.4375V12H27.2195V6.19886C27.2195 5.72538 27.0717 5.3447 26.7763 5.05682C26.4808 4.76894 26.0964 4.625 25.6229 4.625C25.3009 4.625 25.0036 4.71023 24.7308 4.88068C24.4619 5.04735 24.2441 5.2803 24.0774 5.57955C23.9145 5.87879 23.8331 6.22538 23.8331 6.61932V12H22.1342ZM40.0362 12.1761C39.1764 12.1761 38.4358 11.9924 37.8146 11.625C37.1972 11.2538 36.7199 10.733 36.3828 10.0625C36.0495 9.38826 35.8828 8.59848 35.8828 7.69318C35.8828 6.79924 36.0495 6.01136 36.3828 5.32955C36.7199 4.64773 37.1896 4.11553 37.7919 3.73295C38.398 3.35038 39.1063 3.15909 39.9169 3.15909C40.4093 3.15909 40.8866 3.24053 41.3487 3.40341C41.8108 3.56629 42.2256 3.82197 42.593 4.17045C42.9605 4.51894 43.2502 4.97159 43.4624 5.52841C43.6745 6.08144 43.7805 6.75379 43.7805 7.54545V8.14773H36.843V6.875H42.1158C42.1158 6.42803 42.0249 6.0322 41.843 5.6875C41.6612 5.33902 41.4055 5.06439 41.076 4.86364C40.7502 4.66288 40.3677 4.5625 39.9283 4.5625C39.451 4.5625 39.0343 4.67992 38.6783 4.91477C38.326 5.14583 38.0533 5.44886 37.8601 5.82386C37.6707 6.19508 37.576 6.59848 37.576 7.03409V8.02841C37.576 8.61174 37.6783 9.10795 37.8828 9.51705C38.0911 9.92614 38.3809 10.2386 38.7521 10.4545C39.1233 10.6667 39.5571 10.7727 40.0533 10.7727C40.3752 10.7727 40.6688 10.7273 40.9339 10.6364C41.1991 10.5417 41.4283 10.4015 41.6214 10.2159C41.8146 10.0303 41.9624 9.80114 42.0646 9.52841L43.6726 9.81818C43.5438 10.2917 43.3127 10.7064 42.9794 11.0625C42.6499 11.4148 42.2351 11.6894 41.7351 11.8864C41.2389 12.0795 40.6726 12.1761 40.0362 12.1761Z" fill="#101828"/>
</svg>
