<svg width="360" height="56" viewBox="0 0 360 56" fill="none" xmlns="http://www.w3.org/2000/svg">
<rect width="360" height="56" rx="12" fill="#F7F7F7"/>
<g clip-path="url(#clip0_38449_83)">
<path fill-rule="evenodd" clip-rule="evenodd" d="M39.7712 18.141C39.8428 18.1997 39.9005 18.2735 39.94 18.3572C39.9796 18.4408 40.0001 18.5322 40 18.6248V36.1248C39.9999 36.2692 39.9498 36.4092 39.8582 36.5208C39.7666 36.6325 39.6391 36.709 39.4975 36.7373L33.2475 37.9873C33.1666 38.0034 33.0834 38.0034 33.0025 37.9873L26.875 36.7623L20.7475 37.9873C20.6569 38.0054 20.5633 38.0032 20.4737 37.9808C20.384 37.9584 20.3004 37.9164 20.2289 37.8578C20.1574 37.7993 20.0998 37.7255 20.0602 37.642C20.0206 37.5585 20.0001 37.4672 20 37.3748V19.8748C20.0001 19.7303 20.0502 19.5904 20.1418 19.4787C20.2334 19.3671 20.3609 19.2906 20.5025 19.2623L26.7525 18.0123C26.8334 17.9961 26.9166 17.9961 26.9975 18.0123L33.125 19.2373L39.2525 18.0123C39.3431 17.994 39.4366 17.9961 39.5263 18.0184C39.616 18.0407 39.6997 18.0825 39.7712 18.141ZM32.5 20.3873L27.5 19.3873V35.6123L32.5 36.6123V20.3873ZM33.75 36.6123L38.75 35.6123V19.3873L33.75 20.3873V36.6123ZM26.25 35.6123V19.3873L21.25 20.3873V36.6123L26.25 35.6123Z" fill="#101828"/>
</g>
<path d="M49.4091 34V22.3636H50.8182V28.1364H50.9545L56.1818 22.3636H58.0227L53.1364 27.6136L58.0227 34H56.3182L52.2727 28.5909L50.8182 30.2273V34H49.4091ZM59.8878 37.2727C59.6605 37.2727 59.4579 37.2538 59.2798 37.2159C59.1018 37.1818 58.9787 37.1477 58.9105 37.1136L59.2514 35.9318C59.5772 36.0152 59.8651 36.0455 60.1151 36.0227C60.3651 36 60.5866 35.8883 60.7798 35.6875C60.9768 35.4905 61.1567 35.1705 61.3196 34.7273L61.5696 34.0455L58.3423 25.2727H59.7969L62.206 32.2273H62.2969L64.706 25.2727H66.1605L62.456 35.2727C62.2893 35.7235 62.0829 36.0966 61.8366 36.392C61.5904 36.6913 61.3045 36.9129 60.9787 37.0568C60.6567 37.2008 60.2931 37.2727 59.8878 37.2727ZM67.9304 34V25.2727H69.2713V34H67.9304ZM68.6122 23.8182C68.3509 23.8182 68.1255 23.7292 67.9361 23.5511C67.7505 23.3731 67.6577 23.1591 67.6577 22.9091C67.6577 22.6591 67.7505 22.4451 67.9361 22.267C68.1255 22.089 68.3509 22 68.6122 22C68.8736 22 69.0971 22.089 69.2827 22.267C69.4721 22.4451 69.5668 22.6591 69.5668 22.9091C69.5668 23.1591 69.4721 23.3731 69.2827 23.5511C69.0971 23.7292 68.8736 23.8182 68.6122 23.8182ZM78.8636 25.2727L75.6364 34H74.2727L71.0455 25.2727H72.5L74.9091 32.2273H75L77.4091 25.2727H78.8636ZM82.0866 32.4091L81.9957 33.0227C81.9313 33.4545 81.8329 33.9167 81.7003 34.4091C81.5715 34.9015 81.437 35.3655 81.2969 35.8011C81.1567 36.2367 81.0412 36.5833 80.9503 36.8409H79.9276C79.9768 36.5985 80.0412 36.2784 80.1207 35.8807C80.2003 35.483 80.2798 35.0379 80.3594 34.5455C80.4427 34.0568 80.5109 33.5568 80.5639 33.0455L80.6321 32.4091H82.0866ZM96.8892 22.3636H98.2983V30.0682C98.2983 30.8636 98.1108 31.5739 97.7358 32.1989C97.3646 32.8201 96.84 33.3106 96.1619 33.6705C95.4839 34.0265 94.6884 34.2045 93.7756 34.2045C92.8627 34.2045 92.0672 34.0265 91.3892 33.6705C90.7112 33.3106 90.1847 32.8201 89.8097 32.1989C89.4384 31.5739 89.2528 30.8636 89.2528 30.0682V22.3636H90.6619V29.9545C90.6619 30.5227 90.7869 31.0284 91.0369 31.4716C91.2869 31.911 91.643 32.2576 92.1051 32.5114C92.571 32.7614 93.1278 32.8864 93.7756 32.8864C94.4233 32.8864 94.9801 32.7614 95.446 32.5114C95.9119 32.2576 96.268 31.911 96.5142 31.4716C96.7642 31.0284 96.8892 30.5227 96.8892 29.9545V22.3636ZM102.18 30.8182L102.158 29.1591H102.43L106.249 25.2727H107.908L103.839 29.3864H103.726L102.18 30.8182ZM100.93 34V22.3636H102.271V34H100.93ZM106.476 34L103.067 29.6818L104.021 28.75L108.18 34H106.476ZM109.634 34V25.2727H110.929V26.5909H111.02C111.179 26.1591 111.467 25.8087 111.884 25.5398C112.3 25.2708 112.77 25.1364 113.293 25.1364C113.391 25.1364 113.514 25.1383 113.662 25.142C113.81 25.1458 113.921 25.1515 113.997 25.1591V26.5227C113.952 26.5114 113.848 26.4943 113.685 26.4716C113.526 26.4451 113.357 26.4318 113.179 26.4318C112.755 26.4318 112.376 26.5208 112.043 26.6989C111.713 26.8731 111.452 27.1155 111.259 27.4261C111.069 27.733 110.974 28.0833 110.974 28.4773V34H109.634ZM118.155 34.2045C117.602 34.2045 117.1 34.1004 116.649 33.892C116.198 33.6799 115.84 33.375 115.575 32.9773C115.31 32.5758 115.178 32.0909 115.178 31.5227C115.178 31.0227 115.276 30.6174 115.473 30.3068C115.67 29.9924 115.933 29.7462 116.263 29.5682C116.592 29.3902 116.956 29.2576 117.354 29.1705C117.755 29.0795 118.159 29.0076 118.564 28.9545C119.094 28.8864 119.524 28.8352 119.854 28.8011C120.187 28.7633 120.429 28.7008 120.581 28.6136C120.736 28.5265 120.814 28.375 120.814 28.1591V28.1136C120.814 27.553 120.661 27.1174 120.354 26.8068C120.051 26.4962 119.59 26.3409 118.973 26.3409C118.333 26.3409 117.831 26.4811 117.467 26.7614C117.104 27.0417 116.848 27.3409 116.7 27.6591L115.428 27.2045C115.655 26.6742 115.958 26.2614 116.337 25.9659C116.719 25.6667 117.136 25.4583 117.587 25.3409C118.041 25.2197 118.488 25.1591 118.928 25.1591C119.208 25.1591 119.53 25.1932 119.893 25.2614C120.261 25.3258 120.615 25.4602 120.956 25.6648C121.301 25.8693 121.587 26.178 121.814 26.5909C122.041 27.0038 122.155 27.5568 122.155 28.25V34H120.814V32.8182H120.746C120.655 33.0076 120.503 33.2102 120.291 33.4261C120.079 33.642 119.797 33.8258 119.445 33.9773C119.092 34.1288 118.662 34.2045 118.155 34.2045ZM118.359 33C118.89 33 119.337 32.8958 119.7 32.6875C120.068 32.4792 120.344 32.2102 120.53 31.8807C120.719 31.5511 120.814 31.2045 120.814 30.8409V29.6136C120.757 29.6818 120.632 29.7443 120.439 29.8011C120.25 29.8542 120.03 29.9015 119.78 29.9432C119.534 29.9811 119.293 30.0152 119.058 30.0455C118.827 30.072 118.64 30.0947 118.496 30.1136C118.147 30.1591 117.821 30.233 117.518 30.3352C117.219 30.4337 116.977 30.5833 116.791 30.7841C116.609 30.9811 116.518 31.25 116.518 31.5909C116.518 32.0568 116.691 32.4091 117.036 32.6477C117.384 32.8826 117.825 33 118.359 33ZM124.602 34V25.2727H125.943V34H124.602ZM125.284 23.8182C125.023 23.8182 124.797 23.7292 124.608 23.5511C124.422 23.3731 124.33 23.1591 124.33 22.9091C124.33 22.6591 124.422 22.4451 124.608 22.267C124.797 22.089 125.023 22 125.284 22C125.545 22 125.769 22.089 125.955 22.267C126.144 22.4451 126.239 22.6591 126.239 22.9091C126.239 23.1591 126.144 23.3731 125.955 23.5511C125.769 23.7292 125.545 23.8182 125.284 23.8182ZM129.74 28.75V34H128.399V25.2727H129.695V26.6364H129.808C130.013 26.1932 130.323 25.8371 130.74 25.5682C131.157 25.2955 131.695 25.1591 132.354 25.1591C132.945 25.1591 133.462 25.2803 133.905 25.5227C134.348 25.7614 134.693 26.125 134.939 26.6136C135.185 27.0985 135.308 27.7121 135.308 28.4545V34H133.967V28.5455C133.967 27.8598 133.789 27.3258 133.433 26.9432C133.077 26.5568 132.589 26.3636 131.967 26.3636C131.539 26.3636 131.157 26.4564 130.82 26.642C130.486 26.8277 130.223 27.0985 130.03 27.4545C129.837 27.8106 129.74 28.2424 129.74 28.75ZM141.418 34.1818C140.577 34.1818 139.851 33.9962 139.241 33.625C138.635 33.25 138.168 32.7273 137.838 32.0568C137.512 31.3826 137.349 30.5985 137.349 29.7045C137.349 28.8106 137.512 28.0227 137.838 27.3409C138.168 26.6553 138.626 26.1212 139.213 25.7386C139.804 25.3523 140.493 25.1591 141.281 25.1591C141.736 25.1591 142.185 25.2348 142.628 25.3864C143.071 25.5379 143.474 25.7841 143.838 26.125C144.202 26.4621 144.491 26.9091 144.707 27.4659C144.923 28.0227 145.031 28.7083 145.031 29.5227V30.0909H138.304V28.9318H143.668C143.668 28.4394 143.569 28 143.372 27.6136C143.179 27.2273 142.902 26.9223 142.543 26.6989C142.187 26.4754 141.766 26.3636 141.281 26.3636C140.747 26.3636 140.285 26.4962 139.895 26.7614C139.509 27.0227 139.211 27.3636 139.003 27.7841C138.795 28.2045 138.69 28.6553 138.69 29.1364V29.9091C138.69 30.5682 138.804 31.1269 139.031 31.5852C139.262 32.0398 139.582 32.3864 139.991 32.625C140.401 32.8598 140.876 32.9773 141.418 32.9773C141.77 32.9773 142.088 32.928 142.372 32.8295C142.66 32.7273 142.908 32.5758 143.116 32.375C143.325 32.1705 143.486 31.9167 143.599 31.6136L144.895 31.9773C144.759 32.4167 144.529 32.803 144.207 33.1364C143.885 33.4659 143.488 33.7235 143.014 33.9091C142.541 34.0909 142.009 34.1818 141.418 34.1818Z" fill="#101828"/>
<defs>
<clipPath id="clip0_38449_83">
<rect width="20" height="20" fill="white" transform="translate(20 18)"/>
</clipPath>
</defs>
</svg>
